{"asset":{"version":"2.0","generator":"THREE.GLTFExporter"},"scenes":[{"nodes":[0,1,2,3,4,5,6,7,8,9]}],"scene":0,"nodes":[{"matrix":[1,0,0,0,0,1,0,0,0,0,1,0,10,20,10,1],"extensions":{"KHR_lights_punctual":{"light":0}}},{"mesh":0},{"mesh":1},{"mesh":2},{"mesh":3},{"mesh":4},{"matrix":[0.8662870844473874,0,0.49954648164074283,0,0,1,0,0,-0.49954648164074283,0,0.8662870844473874,0,0,1,0,1],"mesh":5},{"matrix":[0.8662870844473874,0,0.49954648164074283,0,0,1,0,0,-0.49954648164074283,0,0.8662870844473874,0,0,1.25,0,1],"mesh":6},{"matrix":[1,0,0,0,0,1,0,0,0,0,1,0,0,-0.5,0,1],"mesh":7},{"mesh":8}],"extensions":{"KHR_lights_punctual":{"lights":[{"color":[1,0.3152904828580609,0.05947157034487215],"intensity":80,"type":"point","range":200}]}},"bufferViews":[{"buffer":0,"byteOffset":0,"byteLength":15456,"target":34962,"byteStride":12},{"buffer":0,"byteOffset":15456,"byteLength":15456,"target":34962,"byteStride":12},{"buffer":0,"byteOffset":30912,"byteLength":10304,"target":34962,"byteStride":8},{"buffer":0,"byteOffset":41216,"byteLength":9000,"target":34963},{"buffer":0,"byteOffset":50216,"byteLength":10848,"target":34962,"byteStride":12},{"buffer":0,"byteOffset":61064,"byteLength":10848,"target":34962,"byteStride":12},{"buffer":0,"byteOffset":71912,"byteLength":7232,"target":34962,"byteStride":8},{"buffer":0,"byteOffset":79144,"byteLength":3240,"target":34963},{"buffer":0,"byteOffset":82384,"byteLength":60768,"target":34962,"byteStride":12},{"buffer":0,"byteOffset":143152,"byteLength":60768,"target":34962,"byteStride":12},{"buffer":0,"byteOffset":203920,"byteLength":40512,"target":34962,"byteStride":8},{"buffer":0,"byteOffset":244432,"byteLength":18216,"target":34963},{"buffer":0,"byteOffset":262648,"byteLength":40128,"target":34962,"byteStride":12},{"buffer":0,"byteOffset":302776,"byteLength":40128,"target":34962,"byteStride":12},{"buffer":0,"byteOffset":342904,"byteLength":26752,"target":34962,"byteStride":8},{"buffer":0,"byteOffset":369656,"byteLength":12024,"target":34963},{"buffer":0,"byteOffset":381680,"byteLength":32088,"target":34962,"byteStride":12},{"buffer":0,"byteOffset":413768,"byteLength":32088,"target":34962,"byteStride":12},{"buffer":0,"byteOffset":445856,"byteLength":21392,"target":34962,"byteStride":8},{"buffer":0,"byteOffset":467248,"byteLength":9612,"target":34963},{"buffer":0,"byteOffset":476860,"byteLength":3648,"target":34962,"byteStride":12},{"buffer":0,"byteOffset":480508,"byteLength":3648,"target":34962,"byteStride":12},{"buffer":0,"byteOffset":484156,"byteLength":2432,"target":34962,"byteStride":8},{"buffer":0,"byteOffset":486588,"byteLength":1200,"target":34963},{"buffer":0,"byteOffset":487788,"byteLength":1224,"target":34962,"byteStride":12},{"buffer":0,"byteOffset":489012,"byteLength":1224,"target":34962,"byteStride":12},{"buffer":0,"byteOffset":490236,"byteLength":816,"target":34962,"byteStride":8},{"buffer":0,"byteOffset":491052,"byteLength":600,"target":34963},{"buffer":0,"byteOffset":491652,"byteLength":3648,"target":34962,"byteStride":12},{"buffer":0,"byteOffset":495300,"byteLength":3648,"target":34962,"byteStride":12},{"buffer":0,"byteOffset":498948,"byteLength":2432,"target":34962,"byteStride":8},{"buffer":0,"byteOffset":501380,"byteLength":1200,"target":34963},{"buffer":0,"byteOffset":502580,"byteLength":7056,"target":34962,"byteStride":12},{"buffer":0,"byteOffset":509636,"byteLength":7056,"target":34962,"byteStride":12},{"buffer":0,"byteOffset":516692,"byteLength":4704,"target":34962,"byteStride":8},{"buffer":0,"byteOffset":521396,"byteLength":4572,"target":34963}],"buffers":[{"byteLength":525968,"uri":"data:application/octet-stream;base64,"}],"accessors":[{"bufferView":0,"componentType":5126,"count":1288,"max":[15.911025047302246,9.400257110595703,15.474713325500488],"min":[-15.283679008483887,-1.1324140558599538e-7,-14.162275314331055],"type":"VEC3"},{"bufferView":1,"componentType":5126,"count":1288,"max":[0.8783797025680542,1,1],"min":[-1,-1,-1],"type":"VEC3"},{"bufferView":2,"componentType":5126,"count":1288,"max":[1.0714285373687744,1],"min":[-0.0714285746216774,0],"type":"VEC2"},{"bufferView":3,"componentType":5123,"count":4500,"max":[1287],"min":[0],"type":"SCALAR"},{"bufferView":4,"componentType":5126,"count":904,"max":[15.026025772094727,7.842053413391113,14.8149995803833],"min":[-12.371025085449219,-1.1635738417226094e-7,-13.279999732971191],"type":"VEC3"},{"bufferView":5,"componentType":5126,"count":904,"max":[0.8660253882408142,1,1],"min":[-1,-1,-1],"type":"VEC3"},{"bufferView":6,"componentType":5126,"count":904,"max":[1,1],"min":[0,0],"type":"VEC2"},{"bufferView":7,"componentType":5123,"count":1620,"max":[903],"min":[0],"type":"SCALAR"},{"bufferView":8,"componentType":5126,"count":5064,"max":[16.7960262298584,2.990945816040039,16.350000381469727],"min":[-13.256025314331055,-5.764304233935036e-8,-16.350000381469727],"type":"VEC3"},{"bufferView":9,"componentType":5126,"count":5064,"max":[0.8660253882408142,1,1],"min":[-1,-1,-1],"type":"VEC3"},{"bufferView":10,"componentType":5126,"count":5064,"max":[1,1],"min":[0,0],"type":"VEC2"},{"bufferView":11,"componentType":5123,"count":9108,"max":[5063],"min":[0],"type":"SCALAR"},{"bufferView":12,"componentType":5126,"count":3344,"max":[15.911025047302246,4.9759111404418945,16.350000381469727],"min":[-15.911025047302246,-1.0010695206119635e-7,-14.8149995803833],"type":"VEC3"},{"bufferView":13,"componentType":5126,"count":3344,"max":[0.8660253882408142,1,1],"min":[-1,-1,-1],"type":"VEC3"},{"bufferView":14,"componentType":5126,"count":3344,"max":[1,1],"min":[0,0],"type":"VEC2"},{"bufferView":15,"componentType":5123,"count":6012,"max":[3343],"min":[0],"type":"SCALAR"},{"bufferView":16,"componentType":5126,"count":2674,"max":[14.14102554321289,11.377274513244629,14.8149995803833],"min":[-16.7960262298584,-1.1335000493772895e-7,-14.8149995803833],"type":"VEC3"},{"bufferView":17,"componentType":5126,"count":2674,"max":[0.8660253882408142,1,1],"min":[-1,-1,-1],"type":"VEC3"},{"bufferView":18,"componentType":5126,"count":2674,"max":[1,1],"min":[0,0],"type":"VEC2"},{"bufferView":19,"componentType":5123,"count":4806,"max":[2673],"min":[0],"type":"SCALAR"},{"bufferView":20,"componentType":5126,"count":304,"max":[16.966453552246094,1,17],"min":[-16.966453552246094,-1,-17],"type":"VEC3"},{"bufferView":21,"componentType":5126,"count":304,"max":[0.9980267286300659,1,1],"min":[-0.9980267286300659,-1,-1],"type":"VEC3"},{"bufferView":22,"componentType":5126,"count":304,"max":[1,1],"min":[0,0],"type":"VEC2"},{"bufferView":23,"componentType":5123,"count":600,"max":[303],"min":[0],"type":"SCALAR"},{"bufferView":24,"componentType":5126,"count":102,"max":[17.06625747680664,1.25,17.100000381469727],"min":[-17.06625747680664,-1.25,-17.100000381469727],"type":"VEC3"},{"bufferView":25,"componentType":5126,"count":102,"max":[0.9980267286300659,0,1],"min":[-0.9980267286300659,0,-1],"type":"VEC3"},{"bufferView":26,"componentType":5126,"count":102,"max":[1,1],"min":[0,0],"type":"VEC2"},{"bufferView":27,"componentType":5123,"count":300,"max":[101],"min":[0],"type":"SCALAR"},{"bufferView":28,"componentType":5126,"count":304,"max":[18.4634952545166,0.5,18.5],"min":[-18.4634952545166,-0.5,-18.5],"type":"VEC3"},{"bufferView":29,"componentType":5126,"count":304,"max":[0.9980267286300659,1,1],"min":[-0.9980267286300659,-1,-1],"type":"VEC3"},{"bufferView":30,"componentType":5126,"count":304,"max":[1,1],"min":[0,0],"type":"VEC2"},{"bufferView":31,"componentType":5123,"count":600,"max":[303],"min":[0],"type":"SCALAR"},{"bufferView":32,"componentType":5126,"count":588,"max":[11.280257225036621,15.261614799499512,4.26615047454834],"min":[-7.179242134094238,0,-5.541140556335449],"type":"VEC3"},{"bufferView":33,"componentType":5126,"count":588,"max":[1,1,0.9679617285728455],"min":[-0.9748444557189941,-1,-0.9614770412445068],"type":"VEC3"},{"bufferView":34,"componentType":5126,"count":588,"max":[1.1666666269302368,1],"min":[-0.1666666716337204,0],"type":"VEC2"},{"bufferView":35,"componentType":5123,"count":2286,"max":[587],"min":[0],"type":"SCALAR"}],"materials":[{"pbrMetallicRoughness":{"metallicFactor":0,"roughnessFactor":1,"baseColorTexture":{"index":0}},"extensions":{"KHR_materials_clearcoat":{"clearcoatFactor":0,"clearcoatRoughnessFactor":0}}},{"pbrMetallicRoughness":{"metallicFactor":0,"roughnessFactor":1,"baseColorTexture":{"index":1}},"extensions":{"KHR_materials_clearcoat":{"clearcoatFactor":0,"clearcoatRoughnessFactor":0}}},{"pbrMetallicRoughness":{"metallicFactor":0,"roughnessFactor":1,"baseColorTexture":{"index":2}},"extensions":{"KHR_materials_clearcoat":{"clearcoatFactor":0,"clearcoatRoughnessFactor":0}}},{"pbrMetallicRoughness":{"metallicFactor":0,"roughnessFactor":1,"baseColorTexture":{"index":3}},"extensions":{"KHR_materials_clearcoat":{"clearcoatFactor":0,"clearcoatRoughnessFactor":0}}},{"pbrMetallicRoughness":{"metallicFactor":0,"roughnessFactor":1,"baseColorTexture":{"index":4}},"extensions":{"KHR_materials_clearcoat":{"clearcoatFactor":0,"clearcoatRoughnessFactor":0}}},{"pbrMetallicRoughness":{"baseColorFactor":[0.27252513352439744,1.2059333394658398,3,1],"metallicFactor":0.025,"roughnessFactor":1,"metallicRoughnessTexture":{"index":5}},"alphaMode":"BLEND","extensions":{"KHR_materials_transmission":{"transmissionFactor":1},"KHR_materials_volume":{"thicknessFactor":1.5,"attenuationDistance":0,"attenuationColor":[1,1,1]},"KHR_materials_clearcoat":{"clearcoatFactor":0,"clearcoatRoughnessFactor":0}}},{"pbrMetallicRoughness":{"metallicFactor":0,"roughnessFactor":1,"baseColorTexture":{"index":1}},"doubleSided":true,"extensions":{"KHR_materials_clearcoat":{"clearcoatFactor":0,"clearcoatRoughnessFactor":0}}},{"pbrMetallicRoughness":{"metallicFactor":0,"roughnessFactor":1,"baseColorTexture":{"index":2}},"doubleSided":true,"extensions":{"KHR_materials_clearcoat":{"clearcoatFactor":0,"clearcoatRoughnessFactor":0}}},{"pbrMetallicRoughness":{"metallicFactor":0,"roughnessFactor":1}}],"textures":[{"sampler":0,"source":0},{"sampler":1,"source":1},{"sampler":2,"source":2},{"sampler":3,"source":3},{"sampler":4,"source":4},{"sampler":5,"source":5}],"samplers":[{"magFilter":9729,"minFilter":9987,"wrapS":33071,"wrapT":33071},{"magFilter":9729,"minFilter":9987,"wrapS":33071,"wrapT":33071},{"magFilter":9729,"minFilter":9987,"wrapS":33071,"wrapT":33071},{"magFilter":9729,"minFilter":9987,"wrapS":33071,"wrapT":33071},{"magFilter":9729,"minFilter":9987,"wrapS":33071,"wrapT":33071},{"magFilter":9729,"minFilter":9987,"wrapS":33071,"wrapT":33071}],"images":[{"mimeType":"image/png","uri":"data:image/png;base64,"},{"mimeType":"image/png","uri":"data:image/png;base64,"},{"mimeType":"image/png","uri":"data:image/png;base64,"},{"mimeType":"image/png","uri":"data:image/png;base64,"},{"mimeType":"image/png","uri":"data:image/png;base64,"},{"mimeType":"image/png","uri":"data:image/png;base64,"}],"meshes":[{"primitives":[{"mode":4,"attributes":{"POSITION":0,"NORMAL":1,"TEXCOORD_0":2},"extras":{"mergedUserData":[{},{"mergedUserData":[{"mergedUserData":[{"mergedUserData":[{},{"mergedUserData":[{},{"mergedUserData":[{"mergedUserData":[{"mergedUserData":[{},{"mergedUserData":[{},{"mergedUserData":[{},{"mergedUserData":[{"mergedUserData":[{"mergedUserData":[{"mergedUserData":[{"mergedUserData":[{"mergedUserData":[{"mergedUserData":[{"mergedUserData":[{"mergedUserData":[{"mergedUserData":[{"mergedUserData":[{"mergedUserData":[{},{}]},{}]},{}]},{}]},{}]},{}]},{}]},{}]},{}]},{}]},{}]},{}]}]}]}]},{}]},{}]}]}]},{}]},{}]}]},"indices":3,"material":0}]},{"primitives":[{"mode":4,"attributes":{"POSITION":4,"NORMAL":5,"TEXCOORD_0":6},"extras":{"mergedUserData":[{},{"mergedUserData":[{},{"mergedUserData":[{},{"mergedUserData":[{},{"mergedUserData":[{},{"mergedUserData":[{},{"mergedUserData":[{},{"mergedUserData":[{},{"mergedUserData":[{},{"mergedUserData":[{},{"mergedUserData":[{},{"mergedUserData":[{},{"mergedUserData":[{},{"mergedUserData":[{},{"mergedUserData":[{},{"mergedUserData":[{},{"mergedUserData":[{},{"mergedUserData":[{},{"mergedUserData":[{},{"mergedUserData":[{},{"mergedUserData":[{},{"mergedUserData":[{},{}]}]}]}]}]}]}]}]}]}]}]}]}]}]}]}]}]}]}]}]}]}]},"indices":7,"material":1}]},{"primitives":[{"mode":4,"attributes":{"POSITION":8,"NORMAL":9,"TEXCOORD_0":10},"extras":{"mergedUserData":[{},{"mergedUserData":[{},{"mergedUserData":[{},{"mergedUserData":[{},{"mergedUserData":[{},{"mergedUserData":[{},{"mergedUserData":[{},{"mergedUserData":[{},{"mergedUserData":[{},{"mergedUserData":[{},{"mergedUserData":[{},{"mergedUserData":[{},{"mergedUserData":[{},{"mergedUserData":[{},{"mergedUserData":[{},{"mergedUserData":[{},{"mergedUserData":[{},{"mergedUserData":[{},{"mergedUserData":[{},{"mergedUserData":[{},{"mergedUserData":[{},{"mergedUserData":[{},{"mergedUserData":[{},{"mergedUserData":[{},{"mergedUserData":[{},{"mergedUserData":[{},{"mergedUserData":[{},{"mergedUserData":[{},{"mergedUserData":[{},{"mergedUserData":[{},{"mergedUserData":[{},{"mergedUserData":[{},{"mergedUserData":[{},{"mergedUserData":[{},{"mergedUserData":[{},{"mergedUserData":[{},{"mergedUserData":[{},{"mergedUserData":[{},{"mergedUserData":[{},{"mergedUserData":[{},{"mergedUserData":[{},{"mergedUserData":[{},{"mergedUserData":[{},{"mergedUserData":[{},{"mergedUserData":[{},{"mergedUserData":[{},{"mergedUserData":[{},{"mergedUserData":[{},{"mergedUserData":[{},{"mergedUserData":[{},{"mergedUserData":[{},{"mergedUserData":[{},{"mergedUserData":[{},{"mergedUserData":[{},{"mergedUserData":[{},{"mergedUserData":[{},{"mergedUserData":[{},{"mergedUserData":[{},{"mergedUserData":[{},{"mergedUserData":[{},{"mergedUserData":[{},{"mergedUserData":[{},{"mergedUserData":[{},{"mergedUserData":[{},{"mergedUserData":[{},{"mergedUserData":[{},{"mergedUserData":[{},{"mergedUserData":[{},{"mergedUserData":[{},{"mergedUserData":[{},{"mergedUserData":[{},{"mergedUserData":[{},{"mergedUserData":[{},{"mergedUserData":[{},{"mergedUserData":[{},{"mergedUserData":[{},{"mergedUserData":[{},{"mergedUserData":[{},{"mergedUserData":[{},{"mergedUserData":[{},{"mergedUserData":[{},{"mergedUserData":[{},{"mergedUserData":[{},{"mergedUserData":[{},{"mergedUserData":[{},{"mergedUserData":[{},{"mergedUserData":[{},{"mergedUserData":[{},{"mergedUserData":[{},{"mergedUserData":[{},{"mergedUserData":[{},{"mergedUserData":[{},{"mergedUserData":[{},{"mergedUserData":[{},{"mergedUserData":[{},{"mergedUserData":[{},{"mergedUserData":[{},{"mergedUserData":[{},{"mergedUserData":[{},{"mergedUserData":[{},{"mergedUserData":[{},{"mergedUserData":[{},{"mergedUserData":[{},{"mergedUserData":[{},{"mergedUserData":[{},{"mergedUserData":[{},{"mergedUserData":[{},{"mergedUserData":[{},{"mergedUserData":[{},{"mergedUserData":[{},{"mergedUserData":[{},{"mergedUserData":[{},{"mergedUserData":[{},{"mergedUserData":[{},{"mergedUserData":[{},{"mergedUserData":[{},{"mergedUserData":[{},{"mergedUserData":[{},{"mergedUserData":[{},{"mergedUserData":[{},{"mergedUserData":[{},{"mergedUserData":[{},{"mergedUserData":[{},{"mergedUserData":[{},{"mergedUserData":[{},{"mergedUserData":[{},{}]}]}]}]}]}]}]}]}]}]}]}]}]}]}]}]}]}]}]}]}]}]}]}]}]}]}]}]}]}]}]}]}]}]}]}]}]}]}]}]}]}]}]}]}]}]}]}]}]}]}]}]}]}]}]}]}]}]}]}]}]}]}]}]}]}]}]}]}]}]}]}]}]}]}]}]}]}]}]}]}]}]}]}]}]}]}]}]}]}]}]}]}]}]}]}]}]}]}]}]}]}]}]}]}]}]}]}]}]}]}]}]}]}]}]}]}]}]}]}]}]}]}]}]}]}]},"indices":11,"material":2}]},{"primitives":[{"mode":4,"attributes":{"POSITION":12,"NORMAL":13,"TEXCOORD_0":14},"extras":{"mergedUserData":[{},{"mergedUserData":[{},{"mergedUserData":[{},{"mergedUserData":[{},{"mergedUserData":[{},{"mergedUserData":[{},{"mergedUserData":[{},{"mergedUserData":[{},{"mergedUserData":[{},{"mergedUserData":[{},{"mergedUserData":[{},{"mergedUserData":[{},{"mergedUserData":[{},{"mergedUserData":[{},{"mergedUserData":[{},{"mergedUserData":[{},{"mergedUserData":[{},{"mergedUserData":[{},{"mergedUserData":[{},{"mergedUserData":[{},{"mergedUserData":[{},{"mergedUserData":[{},{"mergedUserData":[{},{"mergedUserData":[{},{"mergedUserData":[{},{"mergedUserData":[{},{"mergedUserData":[{},{"mergedUserData":[{},{"mergedUserData":[{},{"mergedUserData":[{},{"mergedUserData":[{},{"mergedUserData":[{},{"mergedUserData":[{},{"mergedUserData":[{},{"mergedUserData":[{},{"mergedUserData":[{},{"mergedUserData":[{},{"mergedUserData":[{},{"mergedUserData":[{},{"mergedUserData":[{},{"mergedUserData":[{},{"mergedUserData":[{},{"mergedUserData":[{},{"mergedUserData":[{},{"mergedUserData":[{},{"mergedUserData":[{},{"mergedUserData":[{},{"mergedUserData":[{},{"mergedUserData":[{},{"mergedUserData":[{},{"mergedUserData":[{},{"mergedUserData":[{},{"mergedUserData":[{},{"mergedUserData":[{},{"mergedUserData":[{},{"mergedUserData":[{},{"mergedUserData":[{},{"mergedUserData":[{},{"mergedUserData":[{},{"mergedUserData":[{},{"mergedUserData":[{},{"mergedUserData":[{},{"mergedUserData":[{},{"mergedUserData":[{},{"mergedUserData":[{},{"mergedUserData":[{},{"mergedUserData":[{},{"mergedUserData":[{},{"mergedUserData":[{},{"mergedUserData":[{},{"mergedUserData":[{},{"mergedUserData":[{},{"mergedUserData":[{},{"mergedUserData":[{},{"mergedUserData":[{},{"mergedUserData":[{},{"mergedUserData":[{},{"mergedUserData":[{},{"mergedUserData":[{},{"mergedUserData":[{},{"mergedUserData":[{},{"mergedUserData":[{},{"mergedUserData":[{},{}]}]}]}]}]}]}]}]}]}]}]}]}]}]}]}]}]}]}]}]}]}]}]}]}]}]}]}]}]}]}]}]}]}]}]}]}]}]}]}]}]}]}]}]}]}]}]}]}]}]}]}]}]}]}]}]}]}]}]}]}]}]}]}]}]}]}]}]}]}]}]}]}]}]}]}]}]}]}]}]}]}]}]},"indices":15,"material":3}]},{"primitives":[{"mode":4,"attributes":{"POSITION":16,"NORMAL":17,"TEXCOORD_0":18},"extras":{"mergedUserData":[{},{"mergedUserData":[{},{"mergedUserData":[{},{"mergedUserData":[{},{"mergedUserData":[{},{"mergedUserData":[{},{"mergedUserData":[{},{"mergedUserData":[{},{"mergedUserData":[{},{"mergedUserData":[{},{"mergedUserData":[{},{"mergedUserData":[{},{"mergedUserData":[{},{"mergedUserData":[{},{"mergedUserData":[{},{"mergedUserData":[{},{"mergedUserData":[{},{"mergedUserData":[{},{"mergedUserData":[{},{"mergedUserData":[{},{"mergedUserData":[{},{"mergedUserData":[{},{"mergedUserData":[{},{"mergedUserData":[{},{"mergedUserData":[{},{"mergedUserData":[{},{"mergedUserData":[{},{"mergedUserData":[{},{"mergedUserData":[{},{"mergedUserData":[{},{"mergedUserData":[{},{"mergedUserData":[{"mergedUserData":[{},{"mergedUserData":[{},{"mergedUserData":[{},{"mergedUserData":[{"mergedUserData":[{},{"mergedUserData":[{},{"mergedUserData":[{},{"mergedUserData":[{},{"mergedUserData":[{},{"mergedUserData":[{},{"mergedUserData":[{},{"mergedUserData":[{},{"mergedUserData":[{},{"mergedUserData":[{},{"mergedUserData":[{},{"mergedUserData":[{},{"mergedUserData":[{},{"mergedUserData":[{},{"mergedUserData":[{},{"mergedUserData":[{},{"mergedUserData":[{},{"mergedUserData":[{},{"mergedUserData":[{},{"mergedUserData":[{},{"mergedUserData":[{},{"mergedUserData":[{},{"mergedUserData":[{},{"mergedUserData":[{},{"mergedUserData":[{},{"mergedUserData":[{},{"mergedUserData":[{},{"mergedUserData":[{},{"mergedUserData":[{},{"mergedUserData":[{},{}]}]}]}]}]}]}]}]}]}]}]}]}]}]}]}]}]}]}]}]}]}]}]}]}]}]}]}]}]}]},{"mergedUserData":[{},{},{}]}]}]}]}]},{"mergedUserData":[{},{},{}]}]}]}]}]}]}]}]}]}]}]}]}]}]}]}]}]}]}]}]}]}]}]}]}]}]}]}]}]}]}]}]}]},"indices":19,"material":4}]},{"primitives":[{"mode":4,"attributes":{"POSITION":20,"NORMAL":21,"TEXCOORD_0":22},"indices":23,"material":5}]},{"primitives":[{"mode":4,"attributes":{"POSITION":24,"NORMAL":25,"TEXCOORD_0":26},"indices":27,"material":6}]},{"primitives":[{"mode":4,"attributes":{"POSITION":28,"NORMAL":29,"TEXCOORD_0":30},"indices":31,"material":7}]},{"primitives":[{"mode":4,"attributes":{"POSITION":32,"NORMAL":33,"TEXCOORD_0":34},"extras":{"mergedUserData":[{"mergedUserData":[{"mergedUserData":[{},{"mergedUserData":[{},{},{}]}]},{"mergedUserData":[{},{},{}]}]},{"mergedUserData":[{},{},{}]}]},"indices":35,"material":8}]}],"extensionsUsed":["KHR_lights_punctual","KHR_materials_clearcoat","KHR_materials_transmission","KHR_materials_volume"]}